<svg xmlns="http://www.w3.org/2000/svg" xmlns:xlink="http://www.w3.org/1999/xlink" width="500" zoomAndPan="magnify" viewBox="0 0 375 374.999991" height="500" preserveAspectRatio="xMidYMid meet" version="1.0"><defs><g/><clipPath id="2f49651523"><path d="M 105.269531 81.800781 L 269.519531 81.800781 L 269.519531 246.050781 L 105.269531 246.050781 Z M 105.269531 81.800781 " clip-rule="nonzero"/></clipPath></defs><g clip-path="url(#2f49651523)"><path fill="#ffffff" d="M 187.394531 81.800781 C 142.019531 81.800781 105.269531 118.550781 105.269531 163.925781 C 105.269531 209.296875 142.019531 246.050781 187.394531 246.050781 C 232.769531 246.050781 269.519531 209.296875 269.519531 163.925781 C 269.519531 118.550781 232.769531 81.800781 187.394531 81.800781 Z M 187.394531 81.800781 " fill-opacity="1" fill-rule="nonzero"/></g><g fill="#000000" fill-opacity="1"><g transform="translate(188.825924, 224.5938)"><g><path d="M 90.746094 1.132812 C 93.984375 1.132812 98.199219 0.808594 100.628906 0 L 100.628906 -1.945312 C 99.820312 -1.78125 99.007812 -1.78125 98.039062 -1.78125 C 92.527344 -1.78125 89.285156 -7.128906 81.507812 -26.574219 C 73.730469 -46.507812 70.652344 -56.390625 50.71875 -58.984375 C 71.785156 -61.414062 82.804688 -72.921875 82.804688 -88.152344 C 82.804688 -102.574219 73.082031 -113.429688 40.1875 -113.429688 L 8.265625 -113.429688 L 8.265625 -111.324219 C 13.289062 -109.867188 14.746094 -106.140625 14.746094 -92.851562 L 14.746094 -20.578125 C 14.746094 -7.292969 13.289062 -3.566406 8.265625 -2.105469 L 8.265625 0 L 34.515625 0 L 34.515625 -2.105469 C 29.492188 -3.566406 28.035156 -7.292969 28.035156 -20.578125 L 28.035156 -58.5 L 38.40625 -58.5 C 57.851562 -58.5 59.144531 -47.15625 68.546875 -24.792969 C 75.675781 -7.941406 78.269531 1.132812 90.746094 1.132812 Z M 28.035156 -60.929688 L 28.035156 -110.675781 C 30.625 -110.839844 33.21875 -111 35.648438 -111 C 59.632812 -111 69.03125 -98.847656 69.03125 -84.425781 C 69.03125 -70.652344 60.28125 -60.929688 41.644531 -60.929688 Z M 28.035156 -60.929688 "/></g></g></g><g fill="#000000" fill-opacity="1"><g transform="translate(84.975131, 201.864252)"><g><path d="M -2.898438 0 L 16.371094 0 L 16.371094 -2.214844 C 10.570312 -3.410156 9.890625 -9.039062 14.324219 -20.121094 L 24.382812 -45.015625 L 72.46875 -45.015625 L 82.867188 -19.949219 C 88.324219 -7.160156 89.691406 -3.75 84.402344 -2.214844 L 84.402344 0 L 110.832031 0 L 110.832031 -2.214844 C 107.253906 -3.75 103.160156 -7.160156 97.875 -19.949219 L 55.929688 -120.722656 L 43.140625 -114.925781 L 44.675781 -111.34375 C 46.039062 -108.617188 46.207031 -106.398438 45.015625 -103.332031 L 11.425781 -20.121094 C 6.136719 -7.160156 1.875 -3.75 -2.898438 -2.214844 Z M 25.40625 -47.574219 L 48.085938 -103.671875 L 71.445312 -47.574219 Z M 25.40625 -47.574219 "/></g></g></g><g fill="#000000" fill-opacity="1"><g transform="translate(113.06807, 286.799396)"><g><path d="M 6.296875 0.359375 C 5.203125 0.359375 4.125 0.046875 3.0625 -0.578125 L 1.5625 0.171875 L 1.1875 0.171875 L 1.1875 -4.359375 L 1.5625 -4.359375 L 3.078125 -1.078125 C 4.054688 -0.378906 5.175781 -0.03125 6.4375 -0.03125 C 7.46875 -0.03125 8.320312 -0.300781 9 -0.84375 C 9.675781 -1.394531 10.015625 -2.164062 10.015625 -3.15625 C 10.015625 -3.875 9.796875 -4.441406 9.359375 -4.859375 C 8.921875 -5.273438 8.21875 -5.601562 7.25 -5.84375 L 4.3125 -6.609375 C 3.289062 -6.878906 2.519531 -7.335938 2 -7.984375 C 1.488281 -8.640625 1.234375 -9.414062 1.234375 -10.3125 C 1.234375 -11.125 1.394531 -11.84375 1.71875 -12.46875 C 2.039062 -13.09375 2.515625 -13.578125 3.140625 -13.921875 C 3.765625 -14.273438 4.503906 -14.453125 5.359375 -14.453125 C 6.429688 -14.453125 7.390625 -14.269531 8.234375 -13.90625 L 9.515625 -14.453125 L 9.90625 -14.453125 L 9.90625 -10.859375 L 9.515625 -10.859375 L 8.25 -13.4375 C 7.363281 -13.851562 6.40625 -14.0625 5.375 -14.0625 C 4.351562 -14.0625 3.546875 -13.800781 2.953125 -13.28125 C 2.367188 -12.757812 2.078125 -12.066406 2.078125 -11.203125 C 2.078125 -10.566406 2.285156 -10.066406 2.703125 -9.703125 C 3.117188 -9.347656 3.734375 -9.0625 4.546875 -8.84375 L 7.703125 -8.015625 C 8.722656 -7.753906 9.484375 -7.3125 9.984375 -6.6875 C 10.484375 -6.0625 10.734375 -5.109375 10.734375 -3.828125 C 10.734375 -2.523438 10.328125 -1.5 9.515625 -0.75 C 8.710938 -0.0078125 7.640625 0.359375 6.296875 0.359375 Z M 6.296875 0.359375 "/></g></g></g><g fill="#000000" fill-opacity="1"><g transform="translate(125.749963, 286.799396)"><g><path d="M -0.5 0 L -0.5 -0.375 L 1.234375 -1.078125 L 6.328125 -14.453125 L 6.609375 -14.453125 L 11.421875 -0.640625 L 13.046875 -0.375 L 13.046875 0 L 7.859375 0 L 7.859375 -0.375 L 9.3125 -0.59375 L 7.8125 -4.78125 L 3.125 -4.78125 L 1.6875 -1.078125 L 3.28125 -0.375 L 3.28125 0 Z M 3.265625 -5.140625 L 7.6875 -5.140625 L 5.5625 -11.34375 Z M 3.265625 -5.140625 "/></g></g></g><g fill="#000000" fill-opacity="1"><g transform="translate(139.365361, 286.799396)"><g><path d="M 0.765625 0 L 0.765625 -0.375 L 2.390625 -1.078125 L 2.390625 -13.03125 L 0.765625 -13.71875 L 0.765625 -14.09375 L 4.03125 -14.09375 L 11.625 -3.453125 L 11.625 -13.03125 L 10 -13.71875 L 10 -14.09375 L 13.75 -14.09375 L 13.75 -13.71875 L 12.078125 -13.03125 L 12.078125 0 L 11.625 0 L 2.84375 -12.359375 L 2.84375 -1.078125 L 4.53125 -0.375 L 4.53125 0 Z M 0.765625 0 "/></g></g></g><g fill="#000000" fill-opacity="1"><g transform="translate(154.654035, 286.799396)"><g><path d="M 0.703125 -0.375 L 2.328125 -0.640625 L 2.328125 -13.46875 L 0.703125 -13.71875 L 0.703125 -14.09375 L 7.453125 -14.09375 C 8.742188 -14.09375 9.890625 -13.800781 10.890625 -13.21875 C 11.898438 -12.644531 12.6875 -11.828125 13.25 -10.765625 C 13.8125 -9.703125 14.09375 -8.460938 14.09375 -7.046875 C 14.09375 -5.640625 13.8125 -4.40625 13.25 -3.34375 C 12.6875 -2.28125 11.898438 -1.457031 10.890625 -0.875 C 9.878906 -0.289062 8.734375 0 7.453125 0 L 0.703125 0 Z M 7.453125 -0.421875 C 8.304688 -0.421875 9.066406 -0.617188 9.734375 -1.015625 C 10.398438 -1.421875 10.921875 -2.019531 11.296875 -2.8125 C 11.671875 -3.601562 11.859375 -4.5625 11.859375 -5.6875 L 11.859375 -8.40625 C 11.859375 -9.53125 11.671875 -10.488281 11.296875 -11.28125 C 10.921875 -12.070312 10.398438 -12.664062 9.734375 -13.0625 C 9.066406 -13.457031 8.304688 -13.65625 7.453125 -13.65625 L 4.265625 -13.65625 L 4.265625 -0.421875 Z M 7.453125 -0.421875 "/></g></g></g><g fill="#000000" fill-opacity="1"><g transform="translate(170.647241, 286.799396)"><g><path d="M 10.9375 0.171875 C 10.28125 0.171875 9.785156 0.015625 9.453125 -0.296875 C 9.128906 -0.617188 8.910156 -1.160156 8.796875 -1.921875 L 8.453125 -4.28125 C 8.335938 -5.082031 8.066406 -5.707031 7.640625 -6.15625 C 7.210938 -6.613281 6.546875 -6.84375 5.640625 -6.84375 L 4.265625 -6.84375 L 4.265625 -0.640625 L 5.890625 -0.375 L 5.890625 0 L 0.703125 0 L 0.703125 -0.375 L 2.328125 -0.640625 L 2.328125 -13.46875 L 0.703125 -13.71875 L 0.703125 -14.09375 L 5.640625 -14.09375 C 7.554688 -14.09375 8.941406 -13.789062 9.796875 -13.1875 C 10.660156 -12.59375 11.09375 -11.6875 11.09375 -10.46875 C 11.09375 -8.445312 9.867188 -7.28125 7.421875 -6.96875 L 7.421875 -6.859375 C 8.328125 -6.722656 9.050781 -6.394531 9.59375 -5.875 C 10.144531 -5.363281 10.488281 -4.679688 10.625 -3.828125 L 10.859375 -2.3125 C 10.953125 -1.65625 11.0625 -1.207031 11.1875 -0.96875 C 11.3125 -0.726562 11.5 -0.609375 11.75 -0.609375 C 11.925781 -0.609375 12.113281 -0.664062 12.3125 -0.78125 C 12.519531 -0.894531 12.710938 -1.039062 12.890625 -1.21875 L 13.1875 -0.90625 C 12.84375 -0.507812 12.488281 -0.226562 12.125 -0.0625 C 11.757812 0.09375 11.363281 0.171875 10.9375 0.171875 Z M 6.234375 -7.265625 C 7.097656 -7.265625 7.765625 -7.523438 8.234375 -8.046875 C 8.710938 -8.566406 8.953125 -9.335938 8.953125 -10.359375 L 8.953125 -10.734375 C 8.953125 -12.679688 7.847656 -13.65625 5.640625 -13.65625 L 4.265625 -13.65625 L 4.265625 -7.265625 Z M 6.234375 -7.265625 "/></g></g></g><g fill="#000000" fill-opacity="1"><g transform="translate(184.403553, 286.799396)"><g><path d="M -0.5 0 L -0.5 -0.375 L 1.234375 -1.078125 L 6.328125 -14.453125 L 6.609375 -14.453125 L 11.421875 -0.640625 L 13.046875 -0.375 L 13.046875 0 L 7.859375 0 L 7.859375 -0.375 L 9.3125 -0.59375 L 7.8125 -4.78125 L 3.125 -4.78125 L 1.6875 -1.078125 L 3.28125 -0.375 L 3.28125 0 Z M 3.265625 -5.140625 L 7.6875 -5.140625 L 5.5625 -11.34375 Z M 3.265625 -5.140625 "/></g></g></g><g fill="#000000" fill-opacity="1"><g transform="translate(198.018955, 286.799396)"><g/></g></g><g fill="#000000" fill-opacity="1"><g transform="translate(203.179954, 286.799396)"><g><path d="M 0.703125 0 L 0.703125 -0.375 L 2.328125 -0.640625 L 2.328125 -13.46875 L 0.703125 -13.71875 L 0.703125 -14.09375 L 5.890625 -14.09375 L 5.890625 -13.71875 L 4.265625 -13.46875 L 4.265625 -7.6875 L 10.96875 -7.6875 L 10.96875 -13.46875 L 9.328125 -13.71875 L 9.328125 -14.09375 L 14.546875 -14.09375 L 14.546875 -13.71875 L 12.90625 -13.46875 L 12.90625 -0.640625 L 14.546875 -0.375 L 14.546875 0 L 9.328125 0 L 9.328125 -0.375 L 10.96875 -0.640625 L 10.96875 -7.25 L 4.265625 -7.25 L 4.265625 -0.640625 L 5.890625 -0.375 L 5.890625 0 Z M 0.703125 0 "/></g></g></g><g fill="#000000" fill-opacity="1"><g transform="translate(219.366911, 286.799396)"><g><path d="M -0.5 0 L -0.5 -0.375 L 1.234375 -1.078125 L 6.328125 -14.453125 L 6.609375 -14.453125 L 11.421875 -0.640625 L 13.046875 -0.375 L 13.046875 0 L 7.859375 0 L 7.859375 -0.375 L 9.3125 -0.59375 L 7.8125 -4.78125 L 3.125 -4.78125 L 1.6875 -1.078125 L 3.28125 -0.375 L 3.28125 0 Z M 3.265625 -5.140625 L 7.6875 -5.140625 L 5.5625 -11.34375 Z M 3.265625 -5.140625 "/></g></g></g><g fill="#000000" fill-opacity="1"><g transform="translate(232.982312, 286.799396)"><g><path d="M 10.9375 0.171875 C 10.28125 0.171875 9.785156 0.015625 9.453125 -0.296875 C 9.128906 -0.617188 8.910156 -1.160156 8.796875 -1.921875 L 8.453125 -4.28125 C 8.335938 -5.082031 8.066406 -5.707031 7.640625 -6.15625 C 7.210938 -6.613281 6.546875 -6.84375 5.640625 -6.84375 L 4.265625 -6.84375 L 4.265625 -0.640625 L 5.890625 -0.375 L 5.890625 0 L 0.703125 0 L 0.703125 -0.375 L 2.328125 -0.640625 L 2.328125 -13.46875 L 0.703125 -13.71875 L 0.703125 -14.09375 L 5.640625 -14.09375 C 7.554688 -14.09375 8.941406 -13.789062 9.796875 -13.1875 C 10.660156 -12.59375 11.09375 -11.6875 11.09375 -10.46875 C 11.09375 -8.445312 9.867188 -7.28125 7.421875 -6.96875 L 7.421875 -6.859375 C 8.328125 -6.722656 9.050781 -6.394531 9.59375 -5.875 C 10.144531 -5.363281 10.488281 -4.679688 10.625 -3.828125 L 10.859375 -2.3125 C 10.953125 -1.65625 11.0625 -1.207031 11.1875 -0.96875 C 11.3125 -0.726562 11.5 -0.609375 11.75 -0.609375 C 11.925781 -0.609375 12.113281 -0.664062 12.3125 -0.78125 C 12.519531 -0.894531 12.710938 -1.039062 12.890625 -1.21875 L 13.1875 -0.90625 C 12.84375 -0.507812 12.488281 -0.226562 12.125 -0.0625 C 11.757812 0.09375 11.363281 0.171875 10.9375 0.171875 Z M 6.234375 -7.265625 C 7.097656 -7.265625 7.765625 -7.523438 8.234375 -8.046875 C 8.710938 -8.566406 8.953125 -9.335938 8.953125 -10.359375 L 8.953125 -10.734375 C 8.953125 -12.679688 7.847656 -13.65625 5.640625 -13.65625 L 4.265625 -13.65625 L 4.265625 -7.265625 Z M 6.234375 -7.265625 "/></g></g></g><g fill="#000000" fill-opacity="1"><g transform="translate(246.738625, 286.799396)"><g><path d="M 7.59375 0.359375 C 6.3125 0.359375 5.164062 0.046875 4.15625 -0.578125 C 3.144531 -1.203125 2.359375 -2.070312 1.796875 -3.1875 C 1.234375 -4.3125 0.953125 -5.597656 0.953125 -7.046875 C 0.953125 -8.492188 1.234375 -9.773438 1.796875 -10.890625 C 2.359375 -12.015625 3.144531 -12.890625 4.15625 -13.515625 C 5.164062 -14.140625 6.3125 -14.453125 7.59375 -14.453125 C 8.875 -14.453125 10.019531 -14.140625 11.03125 -13.515625 C 12.039062 -12.890625 12.828125 -12.015625 13.390625 -10.890625 C 13.953125 -9.773438 14.234375 -8.492188 14.234375 -7.046875 C 14.234375 -5.597656 13.953125 -4.3125 13.390625 -3.1875 C 12.828125 -2.070312 12.039062 -1.203125 11.03125 -0.578125 C 10.019531 0.046875 8.875 0.359375 7.59375 0.359375 Z M 7.59375 -0.046875 C 8.4375 -0.046875 9.195312 -0.269531 9.875 -0.71875 C 10.550781 -1.164062 11.082031 -1.816406 11.46875 -2.671875 C 11.863281 -3.523438 12.0625 -4.53125 12.0625 -5.6875 L 12.0625 -8.40625 C 12.0625 -9.570312 11.863281 -10.578125 11.46875 -11.421875 C 11.082031 -12.273438 10.550781 -12.925781 9.875 -13.375 C 9.195312 -13.820312 8.4375 -14.046875 7.59375 -14.046875 C 6.738281 -14.046875 5.972656 -13.820312 5.296875 -13.375 C 4.628906 -12.925781 4.101562 -12.273438 3.71875 -11.421875 C 3.332031 -10.578125 3.140625 -9.570312 3.140625 -8.40625 L 3.140625 -5.6875 C 3.140625 -4.53125 3.332031 -3.523438 3.71875 -2.671875 C 4.101562 -1.816406 4.628906 -1.164062 5.296875 -0.71875 C 5.972656 -0.269531 6.738281 -0.046875 7.59375 -0.046875 Z M 7.59375 -0.046875 "/></g></g></g></svg>